Coordinates
version=1
nRows=13
nColumns=34
inDegrees=yes

Units are S.I. units (second, meters, Newtons, ...)
If the header above contains a line with 'inDegrees', this indicates whether rotational values are in degrees (yes) or radians (no).

endheader
time	pelvis_tilt	pelvis_list	pelvis_rotation	pelvis_tx	pelvis_ty	pelvis_tz	hip_flexion_r	hip_adduction_r	hip_rotation_r	knee_angle_r	ankle_angle_r	subtalar_angle_r	mtp_angle_r	hip_flexion_l	hip_adduction_l	hip_rotation_l	knee_angle_l	ankle_angle_l	subtalar_angle_l	mtp_angle_l	lumbar_extension	lumbar_bending	lumbar_rotation	arm_flex_r	arm_add_r	arm_rot_r	elbow_flex_r	pro_sup_r	arm_flex_l	arm_add_l	arm_rot_l	elbow_flex_l	pro_sup_l
      1.73333330	      0.43491168	     -1.34074756	      0.15529711	      1.53283391	      0.86108202	     -0.10868794	     -3.46545866	     -3.66592889	     -3.06851853	      1.68790428	      5.06424480	     -6.97067539	      0.00000000	     -4.43246507	     -6.34152630	     -1.01651566	      0.97270544	      6.58154234	     -0.65112964	      0.00000000	     -7.52709371	      2.28539031	     -1.65986483	      8.80281886	     -7.86074443	     38.65006698	     74.31288286	     86.40050725	      7.58725386	     -7.13165384	     30.23627513	     59.96493330	     84.52843523
      1.75000000	      0.43338505	     -1.34050361	      0.15529458	      1.53297575	      0.86154024	     -0.10865122	     -3.46437912	     -3.66621722	     -3.06871589	      1.68752389	      5.06398771	     -6.97090002	      0.00000000	     -4.43311353	     -6.34216831	     -1.01623851	      0.97397058	      6.58162271	     -0.65118825	      0.00000000	     -7.52693648	      2.28444472	     -1.65988161	      8.80254456	     -7.86076211	     38.64968045	     74.31305399	     86.40022588	      7.58750169	     -7.13139447	     30.23636877	     59.96528368	     84.52859632
      1.76666670	      0.42940072	     -1.33778694	      0.15488712	      1.53299261	      0.86103173	     -0.10871916	     -3.46428406	     -3.66324850	     -3.06928930	      1.68729764	      5.06308312	     -6.97097446	      0.00000000	     -4.43743953	     -6.34208144	     -1.01583696	      0.97763555	      6.58129075	     -0.65101078	      0.00000000	     -7.52741755	      2.28242721	     -1.65974518	      8.80157498	     -7.86074634	     38.64922535	     74.31299936	     86.39976882	      7.58735448	     -7.13117830	     30.23658055	     59.96551898	     84.52886086
      1.78333330	      0.42466800	     -1.33711105	      0.15437791	      1.53286755	      0.86055431	     -0.10871907	     -3.46515538	     -3.66088584	     -3.07007308	      1.68703950	      5.06220252	     -6.97108558	      0.00000000	     -4.44149528	     -6.34097346	     -1.01545954	      0.98080175	      6.58095273	     -0.65078056	      0.00000000	     -7.52781464	      2.28047803	     -1.65960786	      8.80045909	     -7.86072388	     38.64894164	     74.31287328	     86.39938044	      7.58691113	     -7.13092819	     30.23685011	     59.96563273	     84.52909325
      1.80000000	      0.41916155	     -1.33969403	      0.15419677	      1.53266952	      0.86062728	     -0.10854243	     -3.46623316	     -3.66027262	     -3.07098486	      1.68658684	      5.06156959	     -6.97134856	      0.00000000	     -4.44454921	     -6.33882056	     -1.01505678	      0.98307342	      6.58075471	     -0.65056848	      0.00000000	     -7.52780981	      2.27890615	     -1.65961887	      8.79947219	     -7.86075533	     38.64874314	     74.31282440	     86.39907242	      7.58647236	     -7.13048434	     30.23715104	     59.96579332	     84.52928523
      1.81666670	      0.40807857	     -1.35449745	      0.06854315	      1.53232223	      0.86073825	     -0.10805159	     -3.44337813	     -3.61602687	     -3.12713909	      1.62275544	      5.02411813	     -6.98855604	      0.00000000	     -4.43242744	     -6.36406329	     -0.98482993	      1.02113031	      6.56823151	     -0.63335167	      0.00000000	     -7.54230764	      2.17266699	     -1.64971433	      8.75656261	     -7.84666460	     38.63747276	     74.31244608	     86.38139442	      7.57209060	     -7.11761217	     30.24958187	     59.97262422	     84.53997024
      1.83333330	      0.40922886	     -1.35188327	      0.06982662	      1.53214793	      0.86047233	     -0.10807871	     -3.44260763	     -3.61341672	     -3.12776009	      1.62166616	      5.02311355	     -6.98859106	      0.00000000	     -4.43218025	     -6.36408438	     -0.98491511	      1.02110062	      6.56822431	     -0.63327396	      0.00000000	     -7.54218367	      2.17170860	     -1.64872066	      8.75587878	     -7.84615340	     38.63719652	     74.31248709	     86.38098334	      7.57164386	     -7.11768747	     30.24973438	     59.97274610	     84.54021254
      1.85000000	      0.41493074	     -1.34650416	      0.06954363	      1.53208990	      0.85998085	     -0.10827594	     -3.43996418	     -3.60861286	     -3.12854579	      1.61981898	      5.02230298	     -6.98873331	      0.00000000	     -4.43018116	     -6.36513451	     -0.98483720	      1.02037713	      6.56818999	     -0.63309448	      0.00000000	     -7.54247874	      2.17054801	     -1.64786912	      8.75531068	     -7.84551219	     38.63697267	     74.31251740	     86.38062480	      7.57139718	     -7.11788731	     30.24982648	     59.97281555	     84.54042117
      1.86666670	      0.42384936	     -1.34538912	      0.06975939	      1.53227608	      0.85929110	     -0.10847469	     -3.43559078	     -3.60365182	     -3.13042802	      1.61684847	      5.02077041	     -6.98944046	      0.00000000	     -4.42539416	     -6.36446814	     -0.98460283	      1.01960867	      6.56818229	     -0.63279103	      0.00000000	     -7.54415194	      2.16802444	     -1.64618190	      8.75445829	     -7.84407323	     38.63644432	     74.31261254	     86.37987378	      7.57161527	     -7.11846623	     30.24984343	     59.97306323	     84.54084411
      1.88333330	      0.42972890	     -1.34474610	      0.06953656	      1.53257229	      0.85896960	     -0.10852791	     -3.43360761	     -3.60183920	     -3.13124385	      1.61589387	      5.02011943	     -6.98981014	      0.00000000	     -4.42140646	     -6.36456716	     -0.98445859	      1.01885079	      6.56822156	     -0.63272107	      0.00000000	     -7.54534901	      2.16706710	     -1.64546683	      8.75411906	     -7.84353334	     38.63619929	     74.31260923	     86.37954571	      7.57199336	     -7.11884437	     30.24974456	     59.97319078	     84.54102034
      1.90000000	      0.41116881	     -1.34703005	      0.07215030	      1.53292165	      0.85940747	     -0.10849094	     -3.44193408	     -3.59727237	     -3.13771246	      1.61932673	      5.01642882	     -6.99355753	      0.00000000	     -4.41607027	     -6.36678096	     -0.98421616	      1.02468717	      6.56911657	     -0.63330292	      0.00000000	     -7.55212566	      2.16101091	     -1.64006745	      8.74926490	     -7.84035539	     38.63497008	     74.31258176	     86.37720463	      7.57370103	     -7.12255524	     30.24873273	     59.97426669	     84.54227128
      1.91666670	      0.40899852	     -1.34689094	      0.07261382	      1.53298836	      0.86002897	     -0.10851183	     -3.44177722	     -3.59761099	     -3.13836882	      1.61926327	      5.01618044	     -6.99409386	      0.00000000	     -4.41505786	     -6.36825765	     -0.98414865	      1.02522720	      6.56934310	     -0.63347994	      0.00000000	     -7.55253687	      2.16029372	     -1.63939202	      8.74855723	     -7.83998418	     38.63484837	     74.31264542	     86.37692750	      7.57388643	     -7.12308635	     30.24856642	     59.97447324	     84.54241773
      1.93333330	      0.40545618	     -1.34592009	      0.07292211	      1.53312777	      0.86091661	     -0.10859934	     -3.44178360	     -3.59769584	     -3.13888895	      1.61948479	      5.01595838	     -6.99460023	      0.00000000	     -4.41423375	     -6.37034070	     -0.98400669	      1.02595798	      6.56953423	     -0.63365762	      0.00000000	     -7.55297484	      2.15941406	     -1.63867222	      8.74791379	     -7.83958911	     38.63470108	     74.31272928	     86.37664913	      7.57412658	     -7.12368725	     30.24835836	     59.97470766	     84.54255996
